<svg xmlns="http://www.w3.org/2000/svg" viewBox="0 0 1920 673" xml:space="preserve"><style>.st0{fill:#aa3838}.st1{fill:#fff}</style><path class="st0" d="M0 0h1920v673H0z"/><path class="st1" d="M570 428h780v245H570z"/><path class="st0" d="M1322 255H598l-28 28v145h780V283z"/><path class="st1" d="m613.4 270.1-6.5 6.5V300h23.7v-29.9h-17.2zm4.3 10.8h-2.1v-6.6h2.1v6.6zm4.3 0h-2.1v-6.6h2.1v6.6zm4.3 0h-2.1v-6.6h2.1v6.6zm527-10.8c-11.5 0-18.3 7.8-18.3 7.8l18.3 22.1 18.3-22.1s-6.8-7.8-18.3-7.8z"/><path opacity=".5" fill="#fff" d="m1175.7 300 29.9-29.9V300z"/><path class="st1" d="m1175.7 300 17.2-17.2V300zm86.4-14.7h2.2c1.1 0 2-.3 2.6-.8s1-1.4 1-2.4-.3-1.8-.8-2.4c-.5-.6-1.3-.8-2.4-.8-1 0-1.7.3-2.4.8s-.9 1.3-.9 2.2h-3.6c0-1.1.3-2.1.9-3 .6-.9 1.4-1.6 2.4-2.1s2.2-.8 3.5-.8c2.1 0 3.8.5 5 1.6 1.2 1.1 1.8 2.6 1.8 4.5 0 1-.3 1.9-.9 2.7s-1.4 1.5-2.4 1.9c1.2.4 2.1 1 2.7 1.9.6.9.9 1.9.9 3.1 0 1.9-.7 3.4-2 4.6-1.3 1.1-3 1.7-5.2 1.7-2.1 0-3.7-.5-5-1.6s-2-2.5-2-4.4h3.6c0 .9.3 1.7.9 2.3.6.6 1.5.9 2.5.9 1.1 0 2-.3 2.6-.9s1-1.4 1-2.5-.3-2-1-2.6-1.7-.9-3-.9h-2.1v-3zm15.3-3.9c.7 0 1.2.2 1.5.6s.5.8.5 1.4c0 .6-.2 1-.5 1.4s-.9.5-1.5.5-1.1-.2-1.5-.5-.6-.8-.6-1.4.2-1 .5-1.4 1-.6 1.6-.6zm0 12.4c.7 0 1.2.2 1.5.6s.5.8.5 1.4c0 .6-.2 1-.5 1.4s-.9.5-1.5.5-1.1-.2-1.5-.5-.6-.8-.6-1.4.2-1 .5-1.4 1-.6 1.6-.6zm6.6-6.8 1.2-10.8h11.5v3.1h-8.5l-.6 5.1c1-.6 2.1-.8 3.3-.8 2 0 3.6.6 4.7 1.9 1.1 1.3 1.7 3 1.7 5.2s-.6 3.9-1.9 5.2-3 1.9-5.1 1.9c-2 0-3.6-.6-4.9-1.7s-2-2.6-2.1-4.4h3.4c.1 1 .5 1.8 1.1 2.4s1.4.8 2.4.8c1.1 0 1.9-.4 2.6-1.2.6-.8.9-1.8.9-3.2 0-1.3-.3-2.3-1-3.1s-1.6-1.1-2.8-1.1c-.6 0-1.2.1-1.6.3s-.9.5-1.5 1l-2.8-.6zm25.7 10.6h-3.5v-17.1l-5.2 1.8v-3l8.3-3.1h.5v21.4zm-71.8-23.1v-4.4h-10.6v4.4h-4.3V300h19.3v-25.5h-4.4zm-.3 10.1-10.1 11.8 3.4-8.6h-3.4l4.8-9.5h5.3l-3.9 6.3h3.9z"/><path d="M1289 536.3H631c-2.8 0-5-2.3-5-5V466c0-2.8 2.3-5 5-5h658c2.8 0 5 2.3 5 5v65.3c0 2.8-2.2 5-5 5z" fill="#d6d7d7"/><path d="M903.5 508.3V487h7.3c2.4 0 4.2.5 5.5 1.5s1.9 2.4 1.9 4.3c0 1-.3 1.9-.8 2.6s-1.3 1.4-2.3 1.8c1.2.3 2 .9 2.7 1.8.6.9.9 1.9.9 3.1 0 2-.6 3.5-1.9 4.6s-3.1 1.6-5.5 1.6h-7.8zm3.8-12.3h3.6c1.2 0 2.1-.3 2.7-.8.6-.5 1-1.3 1-2.2 0-1.1-.3-1.8-.9-2.3s-1.5-.7-2.8-.7h-3.6v6zm0 2.7v6.7h4.1c1.2 0 2.1-.3 2.7-.9s1-1.4 1-2.4c0-2.2-1.1-3.3-3.4-3.4h-4.4zm30.8-11.7v14.3c0 2.3-.7 4.1-2.2 5.4s-3.4 2-5.8 2-4.4-.7-5.8-2c-1.4-1.3-2.2-3.1-2.2-5.4V487h3.7v14.3c0 1.4.4 2.5 1.1 3.3s1.8 1.1 3.2 1.1c2.9 0 4.3-1.5 4.3-4.5V487h3.7zm19.3 3h-6.7v18.3H947V490h-6.6v-3h16.9v3zm18.5 0h-6.7v18.3h-3.7V490H959v-3h16.9v3zm19.4 8.2c0 2.1-.4 3.9-1.1 5.5-.7 1.6-1.8 2.8-3.1 3.6-1.3.8-2.9 1.3-4.6 1.3-1.7 0-3.3-.4-4.6-1.3-1.4-.8-2.4-2-3.1-3.6-.7-1.6-1.1-3.4-1.1-5.4v-1.2c0-2.1.4-3.9 1.1-5.5s1.8-2.8 3.1-3.7c1.3-.8 2.9-1.3 4.6-1.3s3.3.4 4.6 1.3c1.3.8 2.4 2 3.1 3.6.7 1.6 1.1 3.4 1.1 5.5v1.2zm-3.7-1.1c0-2.4-.4-4.2-1.3-5.4-.9-1.3-2.2-1.9-3.8-1.9-1.6 0-2.9.6-3.8 1.9s-1.4 3-1.4 5.3v1.2c0 2.3.5 4.2 1.4 5.4.9 1.3 2.2 1.9 3.8 1.9 1.6 0 2.9-.6 3.8-1.9.9-1.3 1.3-3.1 1.3-5.5v-1zm24.3 11.2h-3.7l-9.5-15.1v15.1H999V487h3.7l9.5 15.2V487h3.7v21.3z" fill="#717071"/><path class="st1" d="M639.9 375.4c-.3 3.2-1.5 5.7-3.5 7.5-2.1 1.8-4.8 2.7-8.2 2.7-2.4 0-4.5-.6-6.3-1.7-1.8-1.1-3.2-2.7-4.2-4.8s-1.5-4.5-1.5-7.2V369c0-2.8.5-5.3 1.5-7.4s2.4-3.8 4.3-5 4-1.7 6.5-1.7c3.3 0 5.9.9 8 2.7 2 1.8 3.2 4.3 3.5 7.6h-5.2c-.2-2.1-.9-3.7-1.9-4.6s-2.5-1.4-4.4-1.4c-2.3 0-4 .8-5.2 2.5-1.2 1.6-1.8 4.1-1.9 7.3v2.6c0 3.2.6 5.7 1.7 7.4 1.2 1.7 2.8 2.5 5.1 2.5 2 0 3.6-.5 4.6-1.4s1.7-2.4 1.9-4.6h5.2zm9.1-10.1c1.6-1.9 3.7-2.8 6.2-2.8 4.7 0 7.1 2.7 7.2 8.1v14.5h-5v-14.3c0-1.5-.3-2.6-1-3.3-.7-.6-1.6-1-2.9-1-2 0-3.5.9-4.5 2.7v15.9h-5v-31.5h5v11.7zm31.6 19.8c-.2-.4-.4-1.1-.6-2.1-1.6 1.7-3.5 2.5-5.8 2.5-2.2 0-4-.6-5.5-1.9s-2.1-2.8-2.1-4.7c0-2.4.9-4.2 2.6-5.4s4.3-1.9 7.5-1.9h3.1v-1.5c0-1.1-.3-2.1-1-2.8s-1.6-1-2.9-1c-1.1 0-2.1.3-2.8.9-.7.6-1.1 1.3-1.1 2.2h-5c0-1.2.4-2.4 1.2-3.4s1.9-1.9 3.3-2.5 2.9-.9 4.6-.9c2.6 0 4.7.7 6.2 2s2.3 3.1 2.4 5.5v10c0 2 .3 3.6.8 4.8v.3h-4.9zm-5.5-3.6c1 0 1.9-.2 2.8-.7s1.5-1.1 2-1.9v-4.2h-2.7c-1.8 0-3.2.3-4.2 1s-1.4 1.6-1.4 2.7c0 1 .3 1.7 1 2.3s1.5.8 2.5.8zm19.6-18.6.1 2.6c1.6-2 3.8-3 6.5-3 4.6 0 7 2.6 7.1 7.9v14.7h-5v-14.4c0-1.4-.3-2.5-.9-3.1-.6-.7-1.6-1-3-1-2 0-3.5.9-4.5 2.7v15.8h-5v-22.2h4.7zm17.9 10.9c0-3.4.8-6.2 2.4-8.3 1.6-2.1 3.8-3.1 6.4-3.1 2.5 0 4.5.9 6 2.6l.2-2.2h4.5v21.5c0 2.9-.9 5.2-2.7 6.9s-4.3 2.5-7.3 2.5c-1.6 0-3.2-.3-4.8-1-1.6-.7-2.7-1.6-3.5-2.7l2.4-3c1.5 1.8 3.4 2.7 5.7 2.7 1.7 0 3-.4 3.9-1.3s1.4-2.2 1.4-3.9V383c-1.4 1.6-3.3 2.4-5.7 2.4-2.6 0-4.7-1-6.4-3.1s-2.5-4.8-2.5-8.5zm4.9.5c0 2.2.5 4 1.4 5.3.9 1.3 2.2 1.9 3.8 1.9 2 0 3.5-.9 4.5-2.6v-9.8c-.9-1.7-2.4-2.5-4.4-2.5-1.6 0-2.9.6-3.8 1.9s-1.5 3.2-1.5 5.8zm29.5 11.2c-3.2 0-5.7-1-7.7-3s-2.9-4.6-2.9-7.9v-.6c0-2.2.4-4.2 1.3-5.9.9-1.7 2.1-3.1 3.6-4.1s3.3-1.5 5.2-1.5c3 0 5.4 1 7 2.9s2.5 4.7 2.5 8.2v2h-14.5c.2 1.8.8 3.3 1.8 4.3s2.4 1.6 4.1 1.6c2.3 0 4.1-.9 5.6-2.8l2.7 2.6c-.9 1.3-2.1 2.4-3.6 3.1-1.6.7-3.2 1.1-5.1 1.1zm-.6-19c-1.4 0-2.5.5-3.3 1.4s-1.4 2.3-1.6 4h9.5v-.4c-.1-1.7-.6-2.9-1.3-3.8s-1.9-1.2-3.3-1.2zm36.7 8.9c-.3 3.2-1.5 5.7-3.5 7.5-2.1 1.8-4.8 2.7-8.2 2.7-2.4 0-4.5-.6-6.3-1.7-1.8-1.1-3.2-2.7-4.2-4.8s-1.5-4.5-1.5-7.2V369c0-2.8.5-5.3 1.5-7.4s2.4-3.8 4.3-5 4-1.7 6.5-1.7c3.3 0 5.9.9 8 2.7 2 1.8 3.2 4.3 3.5 7.6H778c-.2-2.1-.9-3.7-1.9-4.6s-2.5-1.4-4.4-1.4c-2.3 0-4 .8-5.2 2.5-1.2 1.6-1.8 4.1-1.9 7.3v2.6c0 3.2.6 5.7 1.7 7.4 1.2 1.7 2.8 2.5 5.1 2.5 2 0 3.6-.5 4.6-1.4s1.7-2.4 1.9-4.6h5.2zm3.2-1.6c0-2.2.4-4.1 1.3-5.9.9-1.7 2.1-3.1 3.6-4 1.6-.9 3.3-1.4 5.4-1.4 3 0 5.4 1 7.3 2.9s2.9 4.5 3 7.7v1.2c0 2.2-.4 4.1-1.3 5.9s-2 3.1-3.6 4-3.4 1.4-5.4 1.4c-3.1 0-5.6-1-7.5-3.1s-2.8-4.9-2.8-8.3v-.4zm5 .4c0 2.3.5 4.1 1.4 5.4.9 1.3 2.3 1.9 3.9 1.9s3-.7 3.9-2 1.4-3.2 1.4-5.8c0-2.2-.5-4-1.4-5.3s-2.3-2-3.9-2-2.9.6-3.9 1.9c-1 1.4-1.4 3.3-1.4 5.9zm25.1 10.9h-5v-31.5h5v31.5zm4.5-11.3c0-2.2.4-4.1 1.3-5.9.9-1.7 2.1-3.1 3.6-4 1.6-.9 3.3-1.4 5.4-1.4 3 0 5.4 1 7.3 2.9s2.9 4.5 3 7.7v1.2c0 2.2-.4 4.1-1.3 5.9s-2 3.1-3.6 4-3.4 1.4-5.4 1.4c-3.1 0-5.6-1-7.5-3.1s-2.8-4.9-2.8-8.3v-.4zm5 .4c0 2.3.5 4.1 1.4 5.4.9 1.3 2.3 1.9 3.9 1.9s3-.7 3.9-2 1.4-3.2 1.4-5.8c0-2.2-.5-4-1.4-5.3s-2.3-2-3.9-2-2.9.6-3.9 1.9c-.9 1.4-1.4 3.3-1.4 5.9zm31.5-6.8c-.7-.1-1.3-.2-2-.2-2.3 0-3.8.9-4.6 2.6V385h-5v-22.2h4.8l.1 2.5c1.2-1.9 2.9-2.9 5-2.9.7 0 1.3.1 1.8.3l-.1 4.7zm27.4 3.5c0 2.9-.5 5.5-1.5 7.7s-2.5 3.9-4.3 5.1-4 1.8-6.5 1.8c-2.4 0-4.6-.6-6.5-1.8s-3.4-2.9-4.4-5.1-1.6-4.7-1.6-7.6v-1.7c0-2.9.5-5.5 1.5-7.7s2.5-3.9 4.4-5.1c1.9-1.2 4-1.8 6.5-1.8s4.6.6 6.5 1.8c1.9 1.2 3.3 2.8 4.4 5 1 2.2 1.5 4.7 1.6 7.7v1.7zm-5.2-1.5c0-3.3-.6-5.8-1.9-7.6s-3-2.6-5.3-2.6c-2.2 0-4 .9-5.3 2.6-1.3 1.8-1.9 4.2-1.9 7.5v1.7c0 3.3.6 5.8 1.9 7.6s3.1 2.7 5.3 2.7c2.3 0 4.1-.9 5.3-2.6s1.9-4.3 1.9-7.7v-1.6zm11.7 15.7v-18.5h-3.4v-3.7h3.4v-2c0-2.5.7-4.4 2.1-5.7s3.3-2 5.7-2c.9 0 1.8.1 2.8.4l-.1 3.9c-.5-.1-1.2-.2-1.9-.2-2.4 0-3.6 1.2-3.6 3.7v2h4.5v3.7h-4.5v18.5h-5zm20.3-29.9 8.6 22.9 8.6-22.9h6.7v29.9h-5.2v-9.8l.5-13.2-8.8 23h-3.7l-8.8-23 .5 13.1v9.8h-5.2v-29.9h6.8zm39.4 30.3c-3.2 0-5.7-1-7.7-3s-2.9-4.6-2.9-7.9v-.6c0-2.2.4-4.2 1.3-5.9.9-1.7 2.1-3.1 3.6-4.1s3.3-1.5 5.2-1.5c3 0 5.4 1 7 2.9s2.5 4.7 2.5 8.2v2h-14.5c.2 1.8.8 3.3 1.8 4.3s2.4 1.6 4.1 1.6c2.3 0 4.1-.9 5.6-2.8l2.7 2.6c-.9 1.3-2.1 2.4-3.6 3.1-1.6.7-3.3 1.1-5.1 1.1zm-.6-19c-1.4 0-2.5.5-3.3 1.4s-1.4 2.3-1.6 4h9.5v-.4c-.1-1.7-.6-2.9-1.3-3.8s-2-1.2-3.3-1.2zm17.9-3.6.1 2.6c1.6-2 3.8-3 6.5-3 4.6 0 7 2.6 7.1 7.9v14.7h-5v-14.4c0-1.4-.3-2.5-.9-3.1-.6-.7-1.6-1-3-1-2 0-3.5.9-4.5 2.7v15.8h-5v-22.2h4.7zm32.2 20c-1.5 1.7-3.5 2.6-6.2 2.6-2.4 0-4.2-.7-5.5-2.1-1.2-1.4-1.9-3.4-1.9-6.1v-14.4h5v14.3c0 2.8 1.2 4.2 3.5 4.2 2.4 0 4.1-.9 4.9-2.6v-15.9h5v22.2h-4.7l-.1-2.2z"/><path d="M575.4 673V323c0-34.3 28.1-62.4 62.4-62.4h644.5c34.3 0 62.4 28.1 62.4 62.4v350h27.7V329.9c0-57.5-46.4-103.9-103.9-103.9H651.6c-57.5 0-103.9 46.4-103.9 103.9V673h27.7z" fill="#122a3a"/></svg>